
  
  <svg xmlns="http://www.w3.org/2000/svg" xmlns:xlink="http://www.w3.org/1999/xlink" version="1.1" width="3154.0989736955244" 
        height="514.3241551931397" viewBox="0 0 3154.0989736955244 514.3241551931397">
			
			<g transform="scale(7.704948684776223) translate(10, 10)">
				<defs id="SvgjsDefs6405"></defs><g id="SvgjsG6406" featureKey="nameLeftFeature-0" transform="matrix(1.7110394893445982,0,0,1.7110394893445982,-2.669221913414712,2.2736979516327835)" fill="#65605f"><path d="M10.63 6.08 q1.33 0.7 2.05 1.89 t0.72 2.65 t-0.67 2.62 t-2.01 1.83 t-3.24 0.67 l-2.76 0 l0 4.26 l-3.16 0 l0 -14.62 l5.94 0 q1.8 0 3.13 0.7 z M9.64 12.3 q0.58 -0.7 0.58 -1.68 q0 -0.64 -0.3 -1.21 t-0.89 -0.93 t-1.41 -0.36 l-2.9 0 l0 4.88 l3.22 0 q1.12 0 1.7 -0.7 z M15.280000000000001 20 l0 -14.62 l6.5 0 q1.56 0 2.76 0.64 t1.86 1.8 t0.66 2.64 q0 1.58 -0.8 2.82 t-2.18 1.82 q1.42 1.8 3.78 4.9 l-3.78 0 q-1.28 -1.6 -3.5 -4.56 l-2.16 0 l0 4.56 l-3.14 0 z M21.78 12.7 q0.82 0 1.48 -0.59 t0.66 -1.65 q0 -0.86 -0.46 -1.6 t-1.68 -0.74 l-3.36 0 l0 4.58 l3.36 0 z M33 11.38 l7 0 l0 2.76 l-7 0 l0 3.12 l7.92 0 l0 2.74 l-11.08 0 l0 -14.62 l11.08 0 l0 2.74 l-7.92 0 l0 3.26 z M47.16 16.87 q1.42 0.57 2.6 0.57 q1.24 0 1.97 -0.48 t0.73 -1.14 q0 -0.54 -0.43 -0.88 t-1.09 -0.51 t-1.74 -0.37 q-1.44 -0.24 -2.64 -0.62 t-2.18 -1.32 t-0.98 -2.54 q0 -2.36 1.73 -3.39 t4.07 -1.03 q1.8 0 3.13 0.49 t2.65 1.47 l-1.76 2.4 q-0.98 -0.7 -2.04 -1.1 t-2.1 -0.4 q-0.92 0 -1.72 0.33 t-0.8 1.11 q0 0.48 0.41 0.77 t0.9 0.42 t1.59 0.37 l0.72 0.14 q1.66 0.32 2.75 0.71 t1.89 1.31 t0.8 2.56 q0 2.22 -1.57 3.38 t-4.25 1.16 q-3.92 0 -6.6 -2.28 l1.68 -2.42 q0.86 0.72 2.28 1.29 z M63.48 8.12 l0 11.88 l-3.18 0 l0 -11.88 l-4.26 0 l0 -2.74 l11.68 0 l0 2.74 l-4.24 0 z M72.49999999999999 19.26 q-1.8 -1.02 -2.86 -2.77 t-1.06 -3.81 q0 -2.04 1.06 -3.79 t2.86 -2.77 t3.94 -1.02 t3.96 1.02 t2.88 2.77 t1.06 3.79 q0 2.06 -1.06 3.81 t-2.88 2.77 t-3.96 1.02 t-3.94 -1.02 z M74.07999999999998 8.63 q-1.08 0.65 -1.72 1.73 t-0.64 2.32 t0.64 2.33 t1.72 1.75 t2.36 0.66 t2.37 -0.66 t1.72 -1.75 t0.63 -2.33 t-0.63 -2.32 t-1.72 -1.73 t-2.37 -0.65 t-2.36 0.65 z"></path></g><g id="SvgjsG6407" featureKey="inlineSymbolFeature-0" transform="matrix(0.640404480347741,0,0,0.640404480347741,146.96530753442403,-8.642544214063037)" fill="#fc4c69"><title xmlns="http://www.w3.org/2000/svg">iconKit</title><g xmlns="http://www.w3.org/2000/svg"><path d="M60,73.5A1.5,1.5,0,0,0,58.5,75v2.57l-7.83-3.91A1.5,1.5,0,0,0,48.5,75v2.57l-7.83-3.91A1.5,1.5,0,0,0,38.5,75V85a1.5,1.5,0,0,0,2.17,1.34l7.83-3.91V85a1.5,1.5,0,0,0,2.17,1.34l7.83-3.91V85a1.5,1.5,0,0,0,3,0V75A1.5,1.5,0,0,0,60,73.5Zm-8.5,9.07V77.43L56.65,80Zm-10,0V77.43L46.65,80Z"></path><path d="M48.89,49.43a1.61,1.61,0,0,0-.14-.26,1.44,1.44,0,0,0-.19-.23,1.55,1.55,0,0,0-2.12,0,1.42,1.42,0,0,0-.19.23,1.05,1.05,0,0,0-.13.26,1.31,1.31,0,0,0-.09.28A1.36,1.36,0,0,0,46,50a1.5,1.5,0,0,0,.44,1.06,1.52,1.52,0,0,0,1.06.44A1.5,1.5,0,0,0,49,50a1.35,1.35,0,0,0,0-.29A2.26,2.26,0,0,0,48.89,49.43Z"></path><path d="M51.44,48.94a1.5,1.5,0,0,0,0,2.12,1.5,1.5,0,0,0,1.06.44A1.5,1.5,0,0,0,54,50a1.5,1.5,0,0,0-.44-1.06A1.55,1.55,0,0,0,51.44,48.94Z"></path><path d="M46.44,53.94a1.5,1.5,0,1,0,2.12,0A1.55,1.55,0,0,0,46.44,53.94Z"></path><path d="M51.44,53.94a1.5,1.5,0,0,0,0,2.12,1.52,1.52,0,0,0,1.06.44,1.5,1.5,0,0,0,1.06-2.56A1.55,1.55,0,0,0,51.44,53.94Z"></path><path d="M50,38.5a14,14,0,1,0,14,14A14,14,0,0,0,50,38.5Zm0,25a11,11,0,1,1,11-11A11,11,0,0,1,50,63.5Z"></path><path d="M76.15,39c-3.92-4.71-19.89-9-24.65-10.21V26.32a6.5,6.5,0,1,0-8-6.32,1.5,1.5,0,0,0,3,0A3.5,3.5,0,1,1,50,23.5,1.5,1.5,0,0,0,48.5,25v3.83C43.74,30,27.77,34.33,23.85,39A1.5,1.5,0,0,0,26.15,41c3.09-3.71,17.93-8,23.85-9.42C55.91,33,70.75,37.25,73.85,41A1.5,1.5,0,1,0,76.15,39Z"></path></g></g><g id="SvgjsG6408" featureKey="nameRightFeature-0" transform="matrix(1.6909884221110574,0,0,1.6909884221110574,204.36600107500988,2.6803368342014195)" fill="#65605f"><path d="M14.32 8.12 l0 11.88 l-3.18 0 l0 -11.88 l-4.26 0 l0 -2.74 l11.68 0 l0 2.74 l-4.24 0 z M33.64 20 l-3.14 0 l0 -5.68 l-6.86 0 l0 5.68 l-3.14 0 l0 -14.62 l3.14 0 l0 6.2 l6.86 0 l0 -6.2 l3.14 0 l0 14.62 z M36.94 20 l0 -14.62 l6.5 0 q1.56 0 2.76 0.64 t1.86 1.8 t0.66 2.64 q0 1.58 -0.8 2.82 t-2.18 1.82 q1.42 1.8 3.78 4.9 l-3.78 0 q-1.28 -1.6 -3.5 -4.56 l-2.16 0 l0 4.56 l-3.14 0 z M43.44 12.7 q0.82 0 1.48 -0.59 t0.66 -1.65 q0 -0.86 -0.46 -1.6 t-1.68 -0.74 l-3.36 0 l0 4.58 l3.36 0 z M54.66 11.38 l7 0 l0 2.76 l-7 0 l0 3.12 l7.92 0 l0 2.74 l-11.08 0 l0 -14.62 l11.08 0 l0 2.74 l-7.92 0 l0 3.26 z M71.6 4.92 l8.02 15.08 l-3.46 0 l-1.16 -2.24 l-6.82 0 l-1.12 2.24 l-3.48 0 z M73.47999999999999 15.059999999999999 l-1.88 -3.82 l-1.86 3.82 l3.74 0 z M81.3 5.380000000000001 l6.04 0 q3.26 0 5.34 1.84 q1.12 0.98 1.7 2.37 t0.58 3.09 q0 1.66 -0.6 3.09 t-1.68 2.41 q-1 0.88 -2.37 1.35 t-2.97 0.47 l-6.04 0 l0 -14.62 z M87.33999999999999 17.259999999999998 q1.88 0 3.15 -0.98 t1.27 -3.58 t-1.28 -3.58 t-3.14 -0.98 l-2.88 0 l0 9.12 l2.88 0 z M100.94 16.87 q1.42 0.57 2.6 0.57 q1.24 0 1.97 -0.48 t0.73 -1.14 q0 -0.54 -0.43 -0.88 t-1.09 -0.51 t-1.74 -0.37 q-1.44 -0.24 -2.64 -0.62 t-2.18 -1.32 t-0.98 -2.54 q0 -2.36 1.73 -3.39 t4.07 -1.03 q1.8 0 3.13 0.49 t2.65 1.47 l-1.76 2.4 q-0.98 -0.7 -2.04 -1.1 t-2.1 -0.4 q-0.92 0 -1.72 0.33 t-0.8 1.11 q0 0.48 0.41 0.77 t0.9 0.42 t1.59 0.37 l0.72 0.14 q1.66 0.32 2.75 0.71 t1.89 1.31 t0.8 2.56 q0 2.22 -1.57 3.38 t-4.25 1.16 q-3.92 0 -6.6 -2.28 l1.68 -2.42 q0.86 0.72 2.28 1.29 z"></path></g>
			</g>
  </svg>
	

